<?xml version="1.0" encoding="UTF-8"?>
<svg xmlns="http://www.w3.org/2000/svg" viewBox="0 0 850 138" width="850" height="138" role="img" aria-label="charity: water">
      <rect width="850" height="138" fill="none"/>

      <!-- Logo mark -->
      <g transform="translate(24 18)">
            <rect x="0" y="0" width="68" height="92" rx="8" fill="#F5D21F"/>
            <path d="M20 14h28c3 0 5 2 5 5v5c0 2-1 4-3 5l-14 9v9l12 7c2 1 3 3 3 5v5c0 3-2 5-5 5H20c-3 0-5-2-5-5v-5c0-2 1-4 3-5l14-9v-9l-12-7c-2-1-3-3-3-5v-5c0-3 2-5 5-5z" fill="none" stroke="#FFFFFF" stroke-width="4" stroke-linejoin="round"/>
            <path d="M18 23h32" stroke="#FFFFFF" stroke-width="4" stroke-linecap="round"/>
            <path d="M18 70h32" stroke="#FFFFFF" stroke-width="4" stroke-linecap="round"/>
      </g>

      <!-- Wordmark -->
      <text x="116" y="95"
                        font-family="Georgia, 'Times New Roman', serif"
                        font-size="78"
                        font-weight="400"
                        fill="#1C1C1C"
                        letter-spacing="3">charity: water</text>
</svg>
